<?xml version="1.0" encoding="iso-8859-1"?>
<!-- Uploaded to: SVG Repo, www.svgrepo.com, Generator: SVG Repo Mixer Tools -->
<svg height="800px" width="800px" version="1.1" id="Layer_1" xmlns="http://www.w3.org/2000/svg" xmlns:xlink="http://www.w3.org/1999/xlink" 
	 viewBox="0 0 512 512" xml:space="preserve">
<circle style="fill:#BEEBFF;" cx="256" cy="256" r="256"/>
<g>
	<path style="fill:#D9F3FF;" d="M123.586,185.379h-35.31c-4.875,0-8.828-3.953-8.828-8.828l0,0c0-4.875,3.953-8.828,8.828-8.828
		h35.31c4.875,0,8.828,3.953,8.828,8.828l0,0C132.414,181.427,128.461,185.379,123.586,185.379z"/>
	<path style="fill:#D9F3FF;" d="M158.897,167.724h-44.138c-4.875,0-8.828-3.953-8.828-8.828l0,0c0-4.875,3.953-8.828,8.828-8.828
		h44.138c4.875,0,8.828,3.953,8.828,8.828l0,0C167.724,163.772,163.772,167.724,158.897,167.724z"/>
	<path style="fill:#D9F3FF;" d="M194.207,167.724h-8.828c-4.875,0-8.828-3.953-8.828-8.828l0,0c0-4.875,3.953-8.828,8.828-8.828
		h8.828c4.875,0,8.828,3.953,8.828,8.828l0,0C203.034,163.772,199.082,167.724,194.207,167.724z"/>
	<path style="fill:#D9F3FF;" d="M414.897,282.483h-61.793c-4.875,0-8.828-3.953-8.828-8.828l0,0c0-4.875,3.953-8.828,8.828-8.828
		h61.793c4.875,0,8.828,3.953,8.828,8.828l0,0C423.724,278.53,419.772,282.483,414.897,282.483z"/>
	<path style="fill:#D9F3FF;" d="M441.379,264.828h-52.966c-4.875,0-8.828-3.953-8.828-8.828l0,0c0-4.875,3.953-8.828,8.828-8.828
		h52.966c4.875,0,8.828,3.953,8.828,8.828l0,0C450.207,260.875,446.254,264.828,441.379,264.828z"/>
	<path style="fill:#D9F3FF;" d="M88.276,291.31h-35.31c-4.875,0-8.828-3.953-8.828-8.828l0,0c0-4.875,3.953-8.828,8.828-8.828h35.31
		c4.875,0,8.828,3.953,8.828,8.828l0,0C97.103,287.358,93.151,291.31,88.276,291.31z"/>
	<path style="fill:#D9F3FF;" d="M97.103,273.655H79.448c-4.875,0-8.828-3.953-8.828-8.828l0,0c0-4.875,3.953-8.828,8.828-8.828
		h17.655c4.875,0,8.828,3.953,8.828,8.828l0,0C105.931,269.703,101.978,273.655,97.103,273.655z"/>
</g>
<g>
	<path style="fill:#EBF9FF;" d="M264.828,88.276h-35.31c-4.875,0-8.828-3.953-8.828-8.828l0,0c0-4.875,3.953-8.828,8.828-8.828
		h35.31c4.875,0,8.828,3.953,8.828,8.828l0,0C273.655,84.323,269.703,88.276,264.828,88.276z"/>
	<path style="fill:#EBF9FF;" d="M194.207,88.276h-17.655c-4.875,0-8.828-3.953-8.828-8.828l0,0c0-4.875,3.953-8.828,8.828-8.828
		h17.655c4.875,0,8.828,3.953,8.828,8.828l0,0C203.034,84.323,199.082,88.276,194.207,88.276z"/>
	<path style="fill:#EBF9FF;" d="M300.138,105.931h-52.966c-4.875,0-8.828-3.953-8.828-8.828l0,0c0-4.875,3.953-8.828,8.828-8.828
		h52.966c4.875,0,8.828,3.953,8.828,8.828l0,0C308.966,101.978,305.013,105.931,300.138,105.931z"/>
</g>
<path style="fill:#FFA582;" d="M7.555,317.793C35.206,429.318,135.927,512,256,512s220.794-82.682,248.445-194.207H7.555z"/>
<path style="fill:#FFBE99;" d="M480.084,379.586c3.176-5.749,6.102-11.647,8.839-17.655H23.079
	c2.737,6.008,5.662,11.906,8.839,17.655H480.084z"/>
<g>
	<path style="fill:#FF8C64;" d="M282.483,459.034H176.552c-4.875,0-8.828-3.953-8.828-8.828l0,0c0-4.875,3.953-8.828,8.828-8.828
		h105.931c4.875,0,8.828,3.953,8.828,8.828l0,0C291.31,455.082,287.358,459.034,282.483,459.034z"/>
	<path style="fill:#FF8C64;" d="M326.621,459.034h-8.828c-4.875,0-8.828-3.953-8.828-8.828l0,0c0-4.875,3.953-8.828,8.828-8.828
		h8.828c4.875,0,8.828,3.953,8.828,8.828l0,0C335.448,455.082,331.496,459.034,326.621,459.034z"/>
	<path style="fill:#FF8C64;" d="M12.633,335.448h486.734c1.892-5.8,3.596-11.681,5.078-17.655H7.555
		C9.036,323.767,10.741,329.649,12.633,335.448z"/>
</g>
<path style="fill:#FFD7AF;" d="M461.791,151.156l14.906-24.843c-24.317-41.292-59.875-75.138-102.485-97.368l7.349,73.491
	L187.354,226.022l17.655,61.793l205.599-91.378C431.919,186.965,449.792,171.153,461.791,151.156z"/>
<path style="fill:#FF5050;" d="M261.421,411.433l5.575-4.675c5.375-4.508,7.11-12.033,4.252-18.44l-15.619-35.01
	c-5.251-11.77-8.768-24.239-10.44-37.018l-5.825-44.506l-38.457-21.786l-4.298-28.235c-0.918-6.031-7.514-9.352-12.906-6.497
	l-42.835,22.679l64.06,121.017L261.421,411.433z"/>
<g>
	<path style="fill:#FFD7AF;" d="M248.417,332.514c-1.387-5.337-2.513-10.744-3.231-16.226l-0.337-2.57l-12.291,2.166l3.32,18.839
		L248.417,332.514z"/>
	<polygon style="fill:#FFD7AF;" points="243.254,301.518 240.765,282.493 229.631,283.052 230.588,302.155 	"/>
</g>
<path style="fill:#C8373C;" d="M140.867,237.943l64.06,121.017l13.51,12.547c-1.174-4.668-2.968-10.55-5.53-17.917
	c-20.424-58.712-30.354-113.623-33.857-135.864L140.867,237.943z"/>
<polygon style="fill:#FFD7AF;" points="246.766,423.724 196.473,363.437 132.414,242.419 149.321,233.468 212.906,353.591 
	261.421,411.433 "/>
</svg>