<?xml version="1.0" encoding="utf-8"?>
<!-- Uploaded to: SVG Repo, www.svgrepo.com, Generator: SVG Repo Mixer Tools -->
<svg width="800px" height="800px" viewBox="0 -21 1066 1066" class="icon"  version="1.1" xmlns="http://www.w3.org/2000/svg"><path d="M812.148503 580.828743a288.80479 288.80479 0 0 1-119.262275-23.453893s-14.102994 100.713772 19.468263 134.438324 67.908982 32.191617 103.626347 32.191616 103.166467 5.82515 120.641916-41.082634 8.277844-115.736527 8.277845-115.736527a674.491018 674.491018 0 0 1-132.752096 13.643114zM629.729341 251.401198s-34.950898 23.913772-34.950898 89.370059 89.37006 168.622754 89.37006 168.622755a321.916168 321.916168 0 0 0 133.058683 26.213174 752.517365 752.517365 0 0 0 148.23473-15.329342s82.931737-87.223952 82.931737-268.263473-196.215569-183.952096-226.874252-183.952096S605.662275 87.837126 629.729341 251.401198z" fill="#DAAAAB" /><path d="M792.526946 553.235928a373.116168 373.116168 0 0 1-155.439521-30.658682 18.39521 18.39521 0 0 1-5.671856-4.292216c-4.292216-4.905389-103.473054-119.568862-103.473054-197.901796a147.161677 147.161677 0 0 1 37.556886-106.232336 168.622754 168.622754 0 0 1 38.016767-134.131736C660.081437 14.562874 762.634731 0.306587 797.279042 0.306587a371.583234 371.583234 0 0 1 145.628742 27.746108c81.092216 35.564072 123.861078 102.4 123.861078 193.302994 0 205.25988-92.895808 305.360479-96.728143 309.499401a18.39521 18.39521 0 0 1-9.350899 5.211976 844.34012 844.34012 0 0 1-168.162874 17.168862z m-135.971257-62.390419a353.647904 353.647904 0 0 0 135.971257 25.6 832.68982 832.68982 0 0 0 154.213174-15.329341c16.095808-19.77485 83.238323-112.517365 83.238323-280.22036 0-55.492216-22.687425-183.952096-232.699401-183.952095-28.052695 0-118.802395 12.263473-166.016767 66.989221a137.964072 137.964072 0 0 0-28.205988 114.663473 18.39521 18.39521 0 0 1-7.511377 17.628743c-1.686228 1.226347-30.658683 23.607186-30.658682 84.00479-0.306587 51.813174 63.923353 137.964072 91.669461 170.615569z" fill="#892127" /><path d="M611.487425 349.968862a18.39521 18.39521 0 0 1-13.02994-30.658682c4.138922-4.138922 13.796407-13.796407-29.432335-88.143713a18.39521 18.39521 0 0 1 31.731736-18.39521c48.287425 83.08503 45.988024 110.677844 23.607186 132.598803a18.241916 18.241916 0 0 1-12.876647 4.598802z" fill="#892127" /><path d="M827.477844 730.28982h-35.257485c-42.308982 0-90.28982 0-135.66467-45.221557s-30.658683-167.856287-29.279042-181.499401a18.39521 18.39521 0 0 1 26.366467-13.796407 343.530539 343.530539 0 0 0 139.037126 26.979641 819.2 819.2 0 0 0 160.038323-16.402395 18.39521 18.39521 0 0 1 22.227545 15.329341c0 3.679042 11.803593 90.443114-11.190419 151.913772-21.614371 57.331737-87.990419 62.697006-136.277845 62.697006z m-30.658682-37.097006h13.643113c41.082635 0 103.013174 1.532934 118.189222-38.936527a301.988024 301.988024 0 0 0 11.037126-114.663473 866.874251 866.874251 0 0 1-147.774851 13.336527 405.001198 405.001198 0 0 1-131.525748-21.307784c-3.219162 45.068263 0 105.312575 21.307784 126.926946 34.644311 34.644311 69.59521 34.797605 109.604791 34.491018h5.365269z" fill="#892127" /><path d="M389.82515 852.464671a288.958084 288.958084 0 0 0 102.093413-66.069461s50.586826 88.297006 31.731736 132.138922-51.046707 55.185629-84.311377 68.368862-93.662275 43.688623-127.386826 6.74491S261.211976 889.101796 261.211976 889.101796a674.491018 674.491018 0 0 0 128.613174-36.637125zM431.674251 490.845509s40.776048 9.197605 64.843114 69.288623-20.541317 187.017964-20.541317 187.017964a318.697006 318.697006 0 0 1-112.517365 72.814371 744.239521 744.239521 0 0 1-141.796408 40.469461S113.590419 810.768862 47.061078 644.445509s112.977246-240.210778 141.02994-251.554491 205.566467-61.623952 243.583233 97.954491z" fill="#DAAAAB" /><path d="M230.093413 873.005988a18.39521 18.39521 0 0 1-7.66467-1.686228c-5.211976-2.452695-128.613174-61.317365-204.8-251.554491-33.724551-84.464671-18.85509-162.491018 43.228742-225.49461a371.583234 371.583234 0 0 1 124.780838-79.865869c32.191617-12.876647 132.752096-37.71018 209.552096 2.146108a168.622754 168.622754 0 0 1 85.077844 110.524551 147.008383 147.008383 0 0 1 74.347306 84.617964c29.125749 72.814371-20.541317 216.143713-22.687425 222.275449a18.548503 18.548503 0 0 1-3.679042 6.131737 373.116168 373.116168 0 0 1-132.905389 86.457485 844.033533 844.033533 0 0 1-162.644312 45.988024h-2.912575z m66.376048-541.432335a291.257485 291.257485 0 0 0-97.03473 17.015569c-194.989222 78.026347-168.622754 206.026347-147.621557 257.532934 62.543713 156.512575 158.811976 216.91018 181.192814 229.940119a834.529341 834.529341 0 0 0 149.001198-43.075449 349.968862 349.968862 0 0 0 116.656287-74.194012c13.796407-40.622754 41.235928-144.402395 21.920958-192.843113-22.687425-56.718563-59.171257-66.376048-59.631138-66.529342a18.39521 18.39521 0 0 1-13.796407-13.643113 137.964072 137.964072 0 0 0-68.828742-95.961677 178.74012 178.74012 0 0 0-81.858683-18.088623z" fill="#892127" /><path d="M481.341317 571.784431a18.241916 18.241916 0 0 1-7.20479-1.532934c-28.512575-12.263473-41.235928-36.943713-27.286228-131.985629a18.39521 18.39521 0 0 1 36.330539 5.36527c-12.57006 85.077844 0 90.596407 5.36527 92.895808a18.39521 18.39521 0 0 1-7.204791 35.257485z" fill="#892127" /><path d="M345.676647 1023.846707a85.844311 85.844311 0 0 1-66.529342-27.899402c-44.301796-48.594012-65.916168-133.365269-66.835928-136.891018a18.39521 18.39521 0 0 1 15.329342-22.687425 822.725749 822.725749 0 0 0 154.826347-44.148503 339.54491 339.54491 0 0 0 119.108982-76.646706 18.701796 18.701796 0 0 1 15.329341-6.131737 18.39521 18.39521 0 0 1 14.102994 9.197605c6.898204 11.956886 66.222754 118.649102 40.162874 179.353293s-67.908982 76.646707-109.14491 91.976048l-4.905389 1.992815-12.11018 5.058682a271.635928 271.635928 0 0 1-99.334131 26.826348z m-91.976048-154.979641a301.988024 301.988024 0 0 0 52.732934 102.4c29.125749 31.88503 86.304192 7.971257 124.167665-7.664671l12.570059-5.211976 4.90539-1.992814c37.403593-15.329341 69.748503-27.746108 88.910179-72.661078 11.956886-28.052695-7.511377-85.077844-27.286227-125.700599a404.847904 404.847904 0 0 1-114.203593 68.522156 866.414371 866.414371 0 0 1-142.102994 42.462275z" fill="#892127" /></svg>